<svg width="121" height="121" viewBox="0 0 121 121" fill="none" xmlns="http://www.w3.org/2000/svg">
<path d="M88.0477 32.8616C85.5763 27.4228 81.55 22.8374 76.4766 19.6834C71.4031 16.5294 65.5094 14.948 59.5385 15.1384C53.5676 15.3289 47.7867 17.2827 42.9246 20.7537C38.0624 24.2246 34.3366 29.0572 32.2168 34.6424C30.097 40.2277 29.6782 46.3154 31.013 52.1383C32.3478 57.9612 35.3766 63.2586 39.7175 67.3628C44.0585 71.467 49.5172 74.1942 55.4058 75.2007C61.2943 76.2071 67.3491 75.4478 72.8067 73.0184" stroke="white" stroke-width="2" stroke-linecap="round" stroke-linejoin="round"/>
<path d="M88.1383 88.0477C93.5771 85.5763 98.1624 81.55 101.316 76.4766C104.47 71.4031 106.052 65.5094 105.861 59.5385C105.671 53.5676 103.717 47.7867 100.246 42.9246C96.7753 38.0624 91.9426 34.3366 86.3574 32.2168C80.7722 30.097 74.6845 29.6782 68.8616 31.013C63.0386 32.3478 57.7412 35.3766 53.6371 39.7175C49.5329 44.0585 46.8057 49.5172 45.7992 55.4058C44.7927 61.2943 45.552 67.3491 47.9814 72.8067" stroke="white" stroke-width="2" stroke-linecap="round" stroke-linejoin="round"/>
<path d="M32.9727 88.1384C35.4437 93.5772 39.4695 98.1628 44.5426 101.317C49.6158 104.471 55.5092 106.053 61.48 105.863C67.4508 105.674 73.2318 103.72 78.0942 100.25C82.9566 96.7795 86.6828 91.9473 88.8032 86.3625C90.9235 80.7776 91.3431 74.69 90.009 68.8671C88.6749 63.0441 85.6469 57.7464 81.3065 53.6417C76.9662 49.5371 71.5079 46.8092 65.6196 45.8019C59.7313 44.7946 53.6766 45.553 48.2187 47.9815" stroke="white" stroke-width="2" stroke-linecap="round" stroke-linejoin="round"/>
<path d="M32.8615 32.9727C27.4227 35.4437 22.8371 39.4695 19.6827 44.5426C16.5284 49.6158 14.9465 55.5092 15.1364 61.48C15.3263 67.4508 17.2796 73.2318 20.75 78.0942C24.2203 82.9566 29.0525 86.6828 34.6374 88.8032C40.2223 90.9235 46.3098 91.3431 52.1328 90.009C57.9558 88.6749 63.2535 85.6469 67.3581 81.3065C71.4628 76.9662 74.1907 71.5079 75.198 65.6196C76.2053 59.7313 75.4469 53.6766 73.0183 48.2187" stroke="white" stroke-width="2" stroke-linecap="round" stroke-linejoin="round"/>
</svg>
